<?xml version="1.0" encoding="utf-8"?>
<!-- Generator: Adobe Illustrator 17.0.0, SVG Export Plug-In . SVG Version: 6.00 Build 0)  -->
<!DOCTYPE svg PUBLIC "-//W3C//DTD SVG 1.1//EN" "http://www.w3.org/Graphics/SVG/1.1/DTD/svg11.dtd">
<svg version="1.1" id="Calque_1" xmlns="http://www.w3.org/2000/svg" xmlns:xlink="http://www.w3.org/1999/xlink" x="0px" y="0px"
	 width="376.665px" height="126.243px" viewBox="0 0 376.665 126.243" enable-background="new 0 0 376.665 126.243"
	 xml:space="preserve">
<g>
	<path fill="#FF358B" d="M0,43.71c0-7.333,4.17-12.078,10.64-12.078c4.745,0,8.196,2.444,10.496,7.477
		c5.895-5.895,9.633-7.908,14.522-7.908c6.039,0,10.784,4.889,10.784,10.927c0,5.033-2.157,7.045-10.784,9.634
		C24.156,55.5,21.136,58.376,21.136,65.853v26.6c0,5.033-0.144,6.327-1.438,8.771c-1.582,3.163-5.32,5.319-9.058,5.319
		c-3.882,0-7.621-2.156-9.202-5.319C0.144,98.78,0,97.629,0,92.453V43.71z"/>
	<path fill="#FF358B" d="M66.209,76.062c3.163,8.483,8.483,12.509,16.823,12.509c5.032,0,6.327-0.432,17.398-5.896
		c1.294-0.574,3.02-1.006,4.601-1.006c4.313,0,8.483,4.17,8.483,8.627c0,8.627-15.385,16.679-31.632,16.679
		c-22.574,0-38.39-15.241-38.39-36.809c0-22.43,15.385-38.965,36.233-38.965c19.698,0,35.083,15.96,35.083,36.521
		c0,5.896-2.731,8.34-9.202,8.34H66.209z M93.959,61.683c-1.006-4.026-1.725-5.751-3.019-7.764
		c-2.444-3.451-6.47-5.464-10.784-5.464c-7.045,0-11.646,4.026-14.666,13.228H93.959z"/>
	<path fill="#FF358B" d="M170.42,45.723c0,4.745-3.882,9.202-8.195,9.202c-2.301,0-2.444,0-8.915-2.875
		c-3.163-1.438-5.895-2.157-8.052-2.157c-3.45,0-5.607,1.438-5.607,3.738c0,2.732,1.15,3.451,11.071,7.333
		c9.346,3.738,12.365,5.463,16.104,9.202c3.308,3.595,5.177,8.052,5.177,13.229c0,13.946-11.359,23.58-27.895,23.58
		c-14.378,0-27.031-7.189-27.031-15.241c0-4.889,4.313-9.489,8.771-9.489c2.444,0,2.444,0,10.927,3.738
		c3.451,1.581,6.184,2.301,8.483,2.301c3.451,0,6.183-2.157,6.183-4.889c0-2.444-1.581-3.738-8.052-6.183
		c-10.496-3.883-13.372-5.32-16.966-7.908c-5.033-3.595-7.189-8.34-7.189-15.242c0-13.084,11.646-22.861,27.175-22.861
		C159.205,31.201,170.42,37.959,170.42,45.723z"/>
	<path fill="#7B7B7B" d="M183.013,119.341c-2.3,5.463-3.882,6.901-7.332,6.901c-3.595,0-6.758-3.02-6.758-6.327
		c0-1.581,0.287-2.588,1.581-5.751l41.123-99.211c2.157-5.32,3.738-6.758,7.333-6.758s6.758,3.019,6.758,6.326
		c0,1.726-0.144,2.301-1.581,5.608L183.013,119.341z"/>
	<path fill="#7B7B7B" d="M267.928,14.091c0-5.033,0.145-6.327,1.438-8.771c1.581-3.163,5.319-5.32,9.202-5.32
		c3.738,0,7.477,2.157,9.058,5.32c1.295,2.444,1.438,3.595,1.438,8.771v80.375c0,7.62-3.883,12.077-10.641,12.077
		c-5.176,0-8.052-2.3-10.208-8.339c-4.457,6.183-10.065,8.771-18.261,8.771c-9.634,0-18.117-4.745-24.155-13.228
		c-5.033-7.333-7.908-16.392-7.908-25.162c0-11.216,5.176-22.862,12.94-29.62c5.464-4.745,13.372-7.764,19.985-7.764
		c6.327,0,11.359,1.869,17.11,6.614V14.091z M239.028,67.866c0,10.641,6.183,18.404,14.666,18.404
		c8.195,0,14.379-7.908,14.379-18.26c0-10.209-6.184-18.117-14.379-18.117C245.355,49.893,239.028,57.657,239.028,67.866z"/>
	<path fill="#7B7B7B" d="M322.116,12.365c0,6.902-5.464,12.366-12.222,12.366c-6.901,0-12.365-5.464-12.365-12.366
		c0-6.758,5.607-12.222,12.509-12.222C316.652,0.144,322.116,5.751,322.116,12.365z M299.111,45.723
		c0-5.032,0.144-6.327,1.438-8.771c1.582-3.163,5.32-5.32,9.202-5.32c3.738,0,7.477,2.157,9.059,5.32
		c1.294,2.444,1.438,3.595,1.438,8.771v46.729c0,5.033-0.144,6.327-1.438,8.771c-1.582,3.163-5.32,5.319-9.059,5.319
		c-3.882,0-7.62-2.156-9.202-5.319c-1.294-2.444-1.438-3.595-1.438-8.771V45.723z"/>
	<path fill="#7B7B7B" d="M330.222,43.71c0-7.333,4.17-12.078,10.64-12.078c4.745,0,8.196,2.444,10.497,7.477
		c5.895-5.895,9.633-7.908,14.521-7.908c6.039,0,10.784,4.889,10.784,10.927c0,5.033-2.157,7.045-10.784,9.634
		c-11.503,3.738-14.521,6.614-14.521,14.091v26.6c0,5.033-0.145,6.327-1.438,8.771c-1.581,3.163-5.319,5.319-9.059,5.319
		c-3.882,0-7.62-2.156-9.202-5.319c-1.294-2.444-1.438-3.595-1.438-8.771V43.71z"/>
</g>
</svg>
